<svg width="32" height="32" viewBox="0 0 32 32" fill="none" xmlns="http://www.w3.org/2000/svg">
  <rect width="32" height="32" rx="4" fill="#000000"/>

  <!-- Glyph pattern inspired favicon -->
  <rect x="6" y="6" width="4" height="4" rx="1" fill="#FFFFFF" opacity="0.8"/>
  <rect x="14" y="6" width="4" height="4" rx="1" fill="#FF0000"/>
  <rect x="22" y="6" width="4" height="4" rx="1" fill="#FFFFFF" opacity="0.6"/>

  <rect x="2" y="14" width="4" height="4" rx="1" fill="#FFFFFF" opacity="0.4"/>
  <rect x="6" y="14" width="4" height="4" rx="1" fill="#FFFFFF" opacity="0.9"/>
  <rect x="10" y="14" width="4" height="4" rx="1" fill="#FF0000"/>
  <rect x="14" y="14" width="4" height="4" rx="1" fill="#FF0000"/>
  <rect x="18" y="14" width="4" height="4" rx="1" fill="#FF0000"/>
  <rect x="22" y="14" width="4" height="4" rx="1" fill="#FFFFFF" opacity="0.9"/>
  <rect x="26" y="14" width="4" height="4" rx="1" fill="#FFFFFF" opacity="0.4"/>

  <rect x="6" y="22" width="4" height="4" rx="1" fill="#FFFFFF" opacity="0.6"/>
  <rect x="14" y="22" width="4" height="4" rx="1" fill="#FF0000"/>
  <rect x="22" y="22" width="4" height="4" rx="1" fill="#FFFFFF" opacity="0.8"/>
</svg>