<svg width="512" height="512" viewBox="0 0 512 512" fill="none" xmlns="http://www.w3.org/2000/svg">
<rect x="114.982" y="355.701" width="283.533" height="40.2991" rx="8" fill="white"/>
<path d="M190.144 207.4C193.308 207.4 195.873 209.965 195.873 213.129V223.632C195.873 226.797 193.308 229.362 190.144 229.362H186.324V332.485C186.324 336.704 182.904 340.124 178.686 340.124H151.95C147.731 340.124 144.311 336.704 144.311 332.485V229.362H140.492C137.328 229.362 134.763 226.797 134.763 223.632V213.129C134.763 209.965 137.328 207.4 140.492 207.4H190.144Z" fill="white"/>
<path d="M280.854 207.4C284.018 207.4 286.583 209.965 286.583 213.129V223.632C286.583 226.797 284.018 229.362 280.854 229.362H277.035V332.485C277.035 336.704 273.615 340.124 269.396 340.124H242.66C238.442 340.124 235.022 336.704 235.022 332.485V229.362H231.202C228.038 229.362 225.473 226.797 225.473 223.632V213.129C225.473 209.965 228.038 207.4 231.202 207.4H280.854Z" fill="white"/>
<path d="M371.565 207.4C374.729 207.4 377.294 209.965 377.294 213.129V223.632C377.294 226.797 374.729 229.362 371.565 229.362H367.745V332.485C367.745 336.704 364.325 340.124 360.107 340.124H333.371C329.152 340.124 325.732 336.704 325.732 332.485V229.362H321.913C318.749 229.362 316.184 226.797 316.184 223.632V213.129C316.184 209.965 318.749 207.4 321.913 207.4H371.565Z" fill="white"/>
<path d="M108.796 175.89C108.796 168.507 114.781 162.522 122.164 162.522H390.476C397.859 162.522 403.844 168.507 403.844 175.89V178.755C403.844 186.137 397.859 192.122 390.476 192.122H122.164C114.781 192.122 108.796 186.137 108.796 178.755V175.89Z" fill="white"/>
<path fill-rule="evenodd" clip-rule="evenodd" d="M246.7 91.3137C237.518 96.4037 237.518 109.607 246.7 114.697L381.807 189.588C388.264 193.167 396.4 190.834 399.979 184.377L401.368 181.872C404.947 175.415 402.614 167.278 396.157 163.699L262.616 89.6761C258.585 87.4413 253.686 87.4413 249.654 89.6761L246.7 91.3137Z" fill="white"/>
<path d="M403.075 175.89C403.075 168.507 397.09 162.522 389.707 162.522H121.395C114.012 162.522 108.027 168.507 108.027 175.89V178.755C108.027 186.137 114.012 192.122 121.395 192.122H389.707C397.09 192.122 403.075 186.137 403.075 178.755V175.89Z" fill="white"/>
<path fill-rule="evenodd" clip-rule="evenodd" d="M265.171 91.3137C274.354 96.4037 274.354 109.607 265.171 114.697L130.064 189.588C123.607 193.167 115.471 190.834 111.892 184.377L110.503 181.872C106.924 175.415 109.257 167.278 115.714 163.699L249.255 89.6761C253.286 87.4413 258.185 87.4413 262.217 89.6761L265.171 91.3137Z" fill="white"/>
<path d="M256.028 110.96L342.855 163.954H169.201L256.028 110.96Z" fill="white"/>
</svg>
